<svg width="67" height="69" viewBox="0 0 67 69" fill="none" xmlns="http://www.w3.org/2000/svg">
<path d="M52.7053 38.7045C50.2758 39.1699 48.3888 41.0767 47.9277 43.5268H19.0735C18.6124 41.0745 16.7254 39.1699 14.2959 38.7045V10.6855H10.8027V44.5614C10.8027 45.9401 11.9071 47.0548 13.273 47.0548H53.7325C55.0984 47.0548 56.2028 45.9401 56.2028 44.5614V10.6855H52.7096V38.7045H52.7053Z" fill="#2536B8"/>
<path d="M65.2416 0H1.75622C0.786974 0 0 0.794339 0 1.77265V18.9559C0 19.9364 0.786974 20.7286 1.75622 20.7286H7.9019V17.1811H3.51243V7.59708H63.4833V17.1811H59.0938V20.7286H65.2395C66.2109 20.7286 66.9957 19.9342 66.9957 18.9559V1.77265C66.9957 0.792174 66.2087 0 65.2395 0H65.2416Z" fill="#2536B8"/>
<path d="M54.4303 58.5971H51.9386V51.684C51.9386 51.0412 51.4218 50.5195 50.7849 50.5195H48.0037C47.3669 50.5195 46.8501 51.0412 46.8501 51.684V58.5971H44.3583C43.4041 58.5971 42.8809 59.7204 43.4899 60.4628L48.5269 66.5881C48.9773 67.1379 49.8114 67.1379 50.2617 66.5881L55.2988 60.4628C55.9078 59.7204 55.3867 58.5971 54.4303 58.5971Z" fill="#05E6AF"/>
<path d="M38.5358 58.5971H36.0441V51.684C36.0441 51.0412 35.5273 50.5195 34.8904 50.5195H32.1092C31.4723 50.5195 30.9555 51.0412 30.9555 51.684V58.5971H28.4638C27.5096 58.5971 26.9864 59.7204 27.5954 60.4628L32.6324 66.5881C33.0827 67.1379 33.9169 67.1379 34.3672 66.5881L39.4043 60.4628C40.0132 59.7204 39.4922 58.5971 38.5358 58.5971Z" fill="#05E6AF"/>
<path d="M22.6432 58.5971H20.1515V51.684C20.1515 51.0412 19.6347 50.5195 18.9978 50.5195H16.2166C15.5797 50.5195 15.063 51.0412 15.063 51.684V58.5971H12.5712C11.617 58.5971 11.0938 59.7204 11.7028 60.4628L16.7398 66.5881C17.1902 67.1379 18.0243 67.1379 18.4746 66.5881L23.5117 60.4628C24.1207 59.7204 23.5996 58.5971 22.6432 58.5971Z" fill="#05E6AF"/>
<g clip-path="url(#clip0_12332_299382)">
<path d="M32.9998 21.7285L42 25.8051L32.9998 31.0037V21.7285Z" fill="#6475FF"/>
<path d="M33 31.0037L24.0002 25.8051L33 21.7285V31.0037Z" fill="#5164F9"/>
<path d="M32.9998 11L42 25.8053L32.9998 21.7287V11Z" fill="#4557E1"/>
<path d="M24.0002 25.8053L33 11V21.7287L24.0002 25.8053Z" fill="#2536B8"/>
<path d="M42 27.5186L32.9998 40.0004V32.8034L42 27.5186Z" fill="#4457E1"/>
<path d="M33 40.0004L24.0002 27.5186L33 32.8034V40.0004Z" fill="#2536B8"/>
</g>
<defs>
<clipPath id="clip0_12332_299382">
<rect width="18" height="29" fill="white" transform="matrix(-1 0 0 1 42 11)"/>
</clipPath>
</defs>
</svg>
