<svg width="36" height="40" viewBox="0 0 36 40" fill="none" xmlns="http://www.w3.org/2000/svg">
<path fill-rule="evenodd" clip-rule="evenodd" d="M17.7621 0C18.3123 0 18.8626 0.140515 19.357 0.421634L24.2216 3.22841L20.9919 5.09189L19.377 4.16015L18.5681 3.69344C18.0694 3.40563 17.4549 3.40563 16.9561 3.69344L16.1497 4.15866L8.0728 8.81886L7.26561 9.28451C6.90665 9.49162 6.90665 10.0094 7.26561 10.2165L8.0728 10.6822L19.372 17.2016L20.9919 18.1362V33.9754C20.9919 34.3896 21.4405 34.6485 21.7995 34.4414L22.6067 33.9757L30.6811 29.317L31.4886 28.8511C31.9882 28.5628 32.296 28.03 32.296 27.4536V24.6583L35.5257 22.7949V28.3853C35.5257 29.535 34.9138 30.5976 33.9197 31.1753L19.3722 39.5689C18.874 39.8563 18.318 40 17.7621 40L17.7621 19.9997L16.1475 19.0681L0.43125 10.0001C0.706839 9.52311 1.10447 9.11651 1.59615 8.82889L16.171 0.419843L16.2574 0.372203C16.7281 0.124043 17.2451 0 17.7621 0ZM0 11.6148L3.22974 13.4783V27.4544C3.22974 28.0058 3.51133 28.5172 3.97309 28.8129L4.03716 28.8519L4.84467 29.3178L16.1487 35.84V39.567L1.61482 31.1812L1.60987 31.1784C0.615997 30.6049 0.00275518 29.5461 0 28.3995V11.6148ZM33.9213 8.82284L25.8391 4.15938L22.6094 6.02285L30.6837 10.6814L30.7709 10.7336C31.7187 11.3209 32.2986 12.3575 32.2986 13.4767V22.7941L35.5284 20.9307V11.6053C35.5256 10.4891 34.9462 9.45592 34.0006 8.87021L33.9213 8.82284Z" fill="#50E3C2"/>
</svg>
