<?xml version="1.0" encoding="utf-8"?>
<svg version="1.1" xmlns:xlink="http://www.w3.org/1999/xlink" width="41px" height="30px" xmlns="http://www.w3.org/2000/svg">
  <g transform="matrix(1 0 0 1 -665 -391 )">
    <path d="M 27.13046875 16.1612215909091  C 27.2657118055556 16.0262784090909  27.3333333333333 15.8664772727273  27.3333333333333 15.6818181818182  C 27.3333333333333 15.4829545454545  27.2692708333333 15.3196022727273  27.1411458333333 15.1917613636364  L 19.6244791666667 7.69176136363636  C 19.4963541666667 7.56392045454545  19.3326388888889 7.5  19.1333333333333 7.5  C 18.9340277777778 7.5  18.7703125 7.56392045454545  18.6421875 7.69176136363636  L 11.146875 15.1704545454545  C 11.0045138888889 15.3409090909091  10.9333333333333 15.5113636363636  10.9333333333333 15.6818181818182  C 10.9333333333333 15.8806818181818  10.9973958333333 16.0440340909091  11.1255208333333 16.171875  C 11.2536458333333 16.2997159090909  11.4173611111111 16.3636363636364  11.6166666666667 16.3636363636364  L 16.4 16.3636363636364  L 16.4 23.8636363636364  C 16.4 24.0482954545455  16.4676215277778 24.2080965909091  16.6028645833333 24.3430397727273  C 16.7381076388889 24.4779829545455  16.8982638888889 24.5454545454545  17.0833333333333 24.5454545454545  L 21.1833333333333 24.5454545454545  C 21.3684027777778 24.5454545454545  21.5285590277778 24.4779829545455  21.6638020833333 24.3430397727273  C 21.7990451388889 24.2080965909091  21.8666666666667 24.0482954545455  21.8666666666667 23.8636363636364  L 21.8666666666667 16.3636363636364  L 26.65 16.3636363636364  C 26.8350694444444 16.3636363636364  26.9952256944444 16.2961647727273  27.13046875 16.1612215909091  Z M 39.2169270833333 16.7365056818182  C 40.4056423611111 18.2208806818182  41 19.9147727272727  41 21.8181818181818  C 41 24.0767045454545  40.19921875 26.0049715909091  38.59765625 27.6029829545455  C 36.99609375 29.2009943181818  35.0635416666667 30  32.8 30  L 9.56666666666667 30  C 6.93298611111111 30  4.68012152777778 29.0660511363636  2.80807291666667 27.1981534090909  C 0.936024305555555 25.3302556818182  0 23.0823863636364  0 20.4545454545455  C 0 18.6079545454545  0.498263888888889 16.9034090909091  1.49479166666667 15.3409090909091  C 2.49131944444444 13.7784090909091  3.82951388888889 12.6065340909091  5.509375 11.8252840909091  C 5.48090277777778 11.3991477272727  5.46666666666667 11.09375  5.46666666666667 10.9090909090909  C 5.46666666666667 7.89772727272727  6.534375 5.32670454545455  8.66979166666667 3.19602272727273  C 10.8052083333333 1.06534090909091  13.3819444444444 0  16.4 0  C 18.6208333333333 0  20.6530381944444 0.617897727272728  22.4966145833333 1.85369318181818  C 24.3401909722222 3.08948863636364  25.6819444444444 4.73011363636364  26.521875 6.77556818181818  C 27.5326388888889 5.89488636363636  28.7142361111111 5.45454545454545  30.0666666666667 5.45454545454545  C 31.5756944444444 5.45454545454545  32.8640625 5.98721590909091  33.9317708333333 7.05255681818182  C 34.9994791666667 8.11789772727273  35.5333333333333 9.40340909090909  35.5333333333333 10.9090909090909  C 35.5333333333333 11.9886363636364  35.2414930555556 12.96875  34.6578125 13.8494318181818  C 36.5085069444444 14.2897727272727  38.0282118055556 15.2521306818182  39.2169270833333 16.7365056818182  Z " fill-rule="nonzero" fill="#2536b8" stroke="none" transform="matrix(1 0 0 1 665 391 )" />
  </g>
</svg>