<?xml version="1.0" encoding="utf-8"?>
<svg version="1.1" xmlns:xlink="http://www.w3.org/1999/xlink" width="30px" height="35px" xmlns="http://www.w3.org/2000/svg">
  <g transform="matrix(1 0 0 1 -750 -367 )">
    <path d="M 22.578125 1.328125  L 28.671875 7.421875  C 29.0364583333333 7.78645833333333  29.3489583333333 8.28125  29.609375 8.90625  C 29.8697916666667 9.53125  30 10.1041666666667  30 10.625  L 30 33.125  C 30 33.6458333333333  29.8177083333333 34.0885416666667  29.453125 34.453125  C 29.0885416666667 34.8177083333333  28.6458333333333 35  28.125 35  L 1.875 35  C 1.35416666666667 35  0.911458333333333 34.8177083333333  0.546875 34.453125  C 0.182291666666667 34.0885416666667  0 33.6458333333333  0 33.125  L 0 1.875  C 0 1.35416666666667  0.182291666666667 0.911458333333332  0.546875 0.546875  C 0.911458333333333 0.182291666666668  1.35416666666667 0  1.875 0  L 19.375 0  C 19.8958333333333 0  20.46875 0.130208333333335  21.09375 0.390625000000001  C 21.71875 0.651041666666666  22.2135416666667 0.963541666666665  22.578125 1.328125  Z M 20.80078125 3.0859375  C 20.64453125 2.9296875  20.3776041666667 2.78645833333333  20 2.65625  L 20 10  L 27.34375 10  C 27.2135416666667 9.62239583333333  27.0703125 9.35546875  26.9140625 9.19921875  L 20.80078125 3.0859375  Z M 3 32  L 27 32  L 27 12.5  L 19.375 12.5  C 18.8541666666667 12.5  18.4114583333333 12.3177083333333  18.046875 11.953125  C 17.6822916666667 11.5885416666667  17.5 11.1458333333333  17.5 10.625  L 17.5 3  L 3 3  L 3 32  Z " fill-rule="nonzero" fill="#2536b8" stroke="none" transform="matrix(1 0 0 1 750 367 )" />
  </g>
  <g transform="matrix(1 0 0 1 -751 -371 )">
    <path d="M 3.05555555555556 4.45454545454546  L 3.05555555555556 6.36363636363636  L 7.94444444444444 6.36363636363636  L 7.94444444444444 4.45454545454546  C 7.94444444444444 3.75189393939394  7.70572916666667 3.15198863636364  7.22829861111111 2.65482954545455  C 6.75086805555556 2.15767045454546  6.17476851851852 1.90909090909091  5.5 1.90909090909091  C 4.82523148148148 1.90909090909091  4.24913194444444 2.15767045454546  3.77170138888889 2.65482954545455  C 3.29427083333333 3.15198863636364  3.05555555555556 3.75189393939394  3.05555555555556 4.45454545454546  Z M 10.7326388888889 6.64204545454546  C 10.9108796296296 6.82765151515151  11 7.0530303030303  11 7.31818181818182  L 11 13.0454545454545  C 11 13.3106060606061  10.9108796296296 13.5359848484848  10.7326388888889 13.7215909090909  C 10.5543981481482 13.907196969697  10.337962962963 14  10.0833333333333 14  L 0.916666666666667 14  C 0.662037037037037 14  0.445601851851852 13.907196969697  0.267361111111111 13.7215909090909  C 0.0891203703703704 13.5359848484848  0 13.3106060606061  0 13.0454545454545  L 0 7.31818181818182  C 0 7.0530303030303  0.0891203703703704 6.82765151515151  0.267361111111111 6.64204545454546  C 0.445601851851852 6.45643939393939  0.662037037037037 6.36363636363636  0.916666666666667 6.36363636363636  L 1.22222222222222 6.36363636363636  L 1.22222222222222 4.45454545454546  C 1.22222222222222 3.23484848484848  1.64236111111111 2.1875  2.48263888888889 1.3125  C 3.32291666666667 0.4375  4.3287037037037 0  5.5 0  C 6.6712962962963 0  7.67708333333333 0.4375  8.51736111111111 1.3125  C 9.35763888888889 2.1875  9.77777777777778 3.23484848484848  9.77777777777778 4.45454545454546  L 9.77777777777778 6.36363636363636  L 10.0833333333333 6.36363636363636  C 10.337962962963 6.36363636363636  10.5543981481482 6.45643939393939  10.7326388888889 6.64204545454546  Z " fill-rule="nonzero" fill="#2536b8" stroke="none" transform="matrix(1 0 0 1 760 381 )" />
  </g>
</svg>