<svg width="161" height="133" viewBox="0 0 161 133" fill="none" xmlns="http://www.w3.org/2000/svg">
<path d="M102.959 98.4272L97.5313 95.2812L79.5234 105.822L84.9514 108.968C86.1627 109.672 87.2576 109.742 88.0729 109.273L106.081 98.7323C105.265 99.2017 104.171 99.1314 102.959 98.4272Z" fill="#E57C09"/>
<path d="M88.7683 101.56L87.669 102.763C87.669 106.31 86.4361 110.174 83.6098 108.386L77.2165 104.391L74.4453 108.773L83.5824 114.496C90.0734 115.996 91.2755 114.496 93.6798 108.237V104.6L88.7683 101.56Z" fill="#E57C09"/>
<path d="M131.341 5.43733C127.265 3.04281 121.697 3.348 115.57 6.89283C112.332 8.77089 109.28 11.3767 106.508 14.452L129.268 27.7863C132.04 24.7109 135.092 22.1051 138.33 20.2271C144.457 16.6822 150.002 16.377 154.102 18.7716L131.341 5.43733Z" fill="#BBE4FD"/>
<path d="M103.3 10.8779C100.574 9.28157 96.8467 9.46938 92.7466 11.8639C92.1177 12.216 91.4887 12.6386 90.8828 13.0846L113.643 26.419C114.249 25.9729 114.878 25.5504 115.507 25.1981C119.607 22.8036 123.334 22.6157 126.06 24.2121L103.3 10.8779Z" fill="#BBE4FD"/>
<path d="M85.1192 1.79606C81.6947 -0.199375 77.0354 0.0353822 71.887 3.0168C62.4753 8.48666 54.7178 21.2575 53.2969 32.9014L76.0571 46.2356C77.4547 34.5917 85.2125 21.8209 94.6472 16.3511C99.7956 13.3696 104.455 13.1114 107.879 15.1303L85.1192 1.79606Z" fill="#BBE4FD"/>
<path d="M59.3072 16.1445C56.1623 21.3561 53.9958 27.2721 53.2969 32.9062L76.0571 46.2406C76.7327 40.5594 78.9456 34.6433 82.0907 29.4085L59.3072 16.1445Z" fill="#49B6F9"/>
<path d="M53.3176 32.9258C50.9414 33.1137 48.3323 33.9587 45.6065 35.5551C35.0768 41.6588 26.5037 56.4484 25.8281 69.2899L48.5883 82.624C49.2873 69.8062 57.837 55.0166 68.3667 48.8893C71.0925 47.2929 73.7016 46.4479 76.0778 46.26L53.3176 32.9258Z" fill="#BBE4FD"/>
<path d="M31.9861 49.9473C28.4683 56.0041 26.1621 62.8825 25.8125 69.268L48.5727 82.6022C48.9223 76.1934 51.2285 69.268 54.7696 63.2112L31.9861 49.9473Z" fill="#49B6F9"/>
<path d="M25.8124 69.2705C23.6459 69.5051 21.293 70.2799 18.8236 71.7119C8.3636 77.7921 -0.0695333 92.8637 0.000432222 105.423C0.0470759 111.785 2.26001 116.269 5.80108 118.335L28.5613 131.669C25.0202 129.603 22.8073 125.119 22.7606 118.757C22.6907 106.198 31.1238 91.1265 41.5838 85.0461C44.0533 83.614 46.4061 82.8395 48.5726 82.6047L25.8124 69.2705Z" fill="#BBE4FD"/>
<path d="M22.7842 118.774C22.7608 114.9 23.5528 110.792 24.9507 106.778L2.16716 93.5137C0.769291 97.5046 0.000631249 101.589 0.0239531 105.416C0.0705968 111.778 2.28353 116.262 5.8246 118.328L28.5848 131.662C25.0206 129.596 22.8075 125.136 22.7842 118.774Z" fill="#49B6F9"/>
<path d="M138.353 20.2479C135.115 22.126 132.063 24.7318 129.291 27.8072C126.868 22.9477 121.627 21.6565 115.5 25.2014C114.871 25.5534 114.242 25.9759 113.636 26.422C112.844 15.0833 104.644 10.5759 94.6497 16.351C85.2382 21.8208 77.4805 34.5916 76.0595 46.2357C73.6833 46.4234 71.0742 47.2687 68.3484 48.8648C57.8187 54.9686 49.2459 69.7584 48.5703 82.5996C46.4037 82.8344 44.0509 83.6092 41.5814 85.041C31.1214 91.1214 22.6883 106.193 22.7582 118.752C22.8282 131.288 31.3544 136.523 41.8377 130.443L138.609 74.2657C151.049 67.0352 161.09 49.0761 160.997 34.1691C160.927 19.2385 150.793 13.0174 138.353 20.2479Z" fill="#76C8FB"/>
<path d="M59.4453 76.903V93.9887L73.3997 85.4397L73.725 68.585L59.4453 76.903Z" fill="#FDFEFE"/>
<path d="M53.5781 93.3043C53.9272 93.5399 66.7107 101.621 66.7107 101.621L79.5546 79.6328L53.5781 93.3043Z" fill="#FDFEFE"/>
<path d="M124.758 44.0263V61.112L138.712 52.563L139.038 35.708L124.758 44.0263Z" fill="#FDFEFE"/>
<path d="M118.891 60.4276C119.24 60.6629 132.023 68.7444 132.023 68.7444L144.867 46.7559L118.891 60.4276Z" fill="#FDFEFE"/>
<path d="M92.4981 68.5686L88.3047 66.127L88.3069 103.638L92.5002 106.103L92.4981 68.5686Z" fill="#E57C09"/>
<path d="M86.0488 72.167L81.8555 69.7255L96.9748 38.0566L101.168 40.4981L86.0488 72.167Z" fill="#FECA8E"/>
<path d="M110.119 58.1127L116.292 54.521L101.057 40.5059L85.9375 72.1747L92.1108 68.583L92.4801 108.879C92.4801 111.579 91.5251 113.504 89.9876 114.396L107.995 103.855C109.533 102.963 110.488 101.038 110.488 98.3386L110.119 58.1127Z" fill="#FD9D2F"/>
</svg>
