<svg width="184" height="248" viewBox="0 0 184 248" fill="none" xmlns="http://www.w3.org/2000/svg">
<g opacity="0.1">
<path opacity="0.62" d="M74.4553 171.301L120.643 114.426C125.467 108.485 134.541 108.485 139.366 114.426L185.554 171.301C189.145 175.723 189.145 182.055 185.554 186.477L139.366 243.351C134.541 249.292 125.467 249.292 120.643 243.351L74.4553 186.477C70.8639 182.055 70.8639 175.723 74.4553 171.301Z" fill="#1BA5F8"/>
<path d="M146.208 32.2245L192.396 -24.65C197.22 -30.5909 206.294 -30.5909 211.119 -24.65L257.306 32.2245C260.898 36.647 260.898 42.9782 257.306 47.4007L211.119 104.275C206.294 110.216 197.22 110.216 192.396 104.275L146.208 47.4007C142.617 42.9782 142.617 36.647 146.208 32.2245Z" fill="#1BA5F8"/>
<path d="M2.6936 32.2245L48.881 -24.65C53.7056 -30.5909 62.7797 -30.5909 67.6043 -24.65L113.792 32.2245C117.383 36.647 117.383 42.9782 113.792 47.4007L67.6043 104.275C62.7797 110.216 53.7056 110.216 48.881 104.275L2.6936 47.4007C-0.897866 42.9782 -0.897866 36.647 2.6936 32.2245Z" fill="#1BA5F8"/>
<path d="M74.4509 -56.6698L120.638 -113.544C125.463 -119.485 134.537 -119.485 139.362 -113.544L185.549 -56.6698C189.141 -52.2473 189.141 -45.9162 185.549 -41.4937L139.362 15.3808C134.537 21.3217 125.463 21.3217 120.638 15.3808L74.4509 -41.4937C70.8595 -45.9162 70.8595 -52.2473 74.4509 -56.6698Z" fill="#1BA5F8"/>
</g>
</svg>
