<svg width="29" height="40" viewBox="0 0 29 40" fill="none" xmlns="http://www.w3.org/2000/svg">
<path opacity="0.62" d="M8.14219 31.634L13.1927 25.415C13.7202 24.7653 14.7124 24.7653 15.24 25.415L20.2905 31.634C20.6832 32.1176 20.6832 32.8099 20.2905 33.2935L15.24 39.5125C14.7124 40.1622 13.7202 40.1622 13.1927 39.5125L8.14219 33.2935C7.74948 32.8099 7.74948 32.1176 8.14219 31.634Z" fill="#1BA5F8"/>
<path d="M15.9874 16.4266L21.0379 10.2076C21.5655 9.55793 22.5577 9.55793 23.0852 10.2076L28.1357 16.4266C28.5284 16.9102 28.5284 17.6025 28.1357 18.0861L23.0852 24.3051C22.5577 24.9548 21.5655 24.9548 21.0379 24.3051L15.9874 18.0861C15.5947 17.6025 15.5947 16.9102 15.9874 16.4266Z" fill="#1BA5F8"/>
<path d="M0.294537 16.4266L5.345 10.2076C5.87256 9.55793 6.86478 9.55793 7.39234 10.2076L12.4428 16.4266C12.8355 16.9102 12.8355 17.6025 12.4428 18.0861L7.39234 24.3051C6.86478 24.9548 5.87256 24.9548 5.345 24.3051L0.294537 18.0861C-0.098179 17.6025 -0.098179 16.9102 0.294537 16.4266Z" fill="#1BA5F8"/>
<path d="M8.14099 6.70628L13.1915 0.487217C13.719 -0.162406 14.7112 -0.162406 15.2388 0.487217L20.2893 6.70628C20.682 7.18986 20.682 7.88216 20.2893 8.36574L15.2388 14.5848C14.7112 15.2344 13.719 15.2344 13.1915 14.5848L8.14099 8.36574C7.74828 7.88216 7.74828 7.18986 8.14099 6.70628Z" fill="#1BA5F8"/>
</svg>
