<svg width="67" height="69" viewBox="0 0 67 69" fill="none" xmlns="http://www.w3.org/2000/svg">
<rect y="44" width="67" height="16" fill="url(#paint0_radial_13691_86902)"/>
<g clip-path="url(#clip0_13691_86902)">
<path d="M32.9997 26.9482L44 31.8683L32.9997 38.1425V26.9482Z" fill="#E3954A"/>
<path d="M33 38.1425L22.0003 31.8683L33 26.9482V38.1425Z" fill="#D0843C"/>
<path d="M32.9997 14L44 31.8685L32.9997 26.9485V14Z" fill="#D0843C"/>
<path d="M22.0003 31.8685L33 14V26.9485L22.0003 31.8685Z" fill="#B86C25"/>
<path d="M44 33.9355L32.9997 48.9998V40.3139L44 33.9355Z" fill="#D0843C"/>
<path d="M33 48.9998L22.0003 33.9355L33 40.3139V48.9998Z" fill="#B86C25"/>
</g>
<path d="M65.2456 44H1.75652C0.787217 44 0.000192404 44.0383 0.000192404 44.0855L0 44.9145C0 44.9618 0.787024 45 1.75633 45H65.2437C66.2151 45 67 44.9617 67 44.9145L66.9998 44.0855C66.9998 44.0382 66.2128 44 65.2435 44H65.2456Z" fill="url(#paint1_linear_13691_86902)"/>
<path d="M53.0312 45H17.97C17.4347 45 17.0001 45.0383 17.0001 45.0855L17 45.9145C17 45.9618 17.4346 46 17.9699 46H53.0301C53.5666 46 54 45.9617 54 45.9145L53.9999 45.0855C53.9999 45.0382 53.5653 45 53.03 45H53.0312Z" fill="url(#paint2_linear_13691_86902)"/>
<path d="M49.9788 46H13.0225C12.4582 46 12.0001 46.0383 12.0001 46.0855L12 46.9145C12 46.9618 12.4581 47 13.0223 47H49.9777C50.5431 47 51 46.9617 51 46.9145L50.9999 46.0855C50.9999 46.0382 50.5418 46 49.9775 46H49.9788Z" fill="url(#paint3_linear_13691_86902)"/>
<path d="M51.1359 47H19.8652C19.3877 47 19.0001 47.0383 19.0001 47.0855L19 47.9145C19 47.9618 19.3876 48 19.8651 48H51.1349C51.6134 48 52 47.9617 52 47.9145L51.9999 47.0855C51.9999 47.0382 51.6123 47 51.1348 47H51.1359Z" fill="url(#paint4_linear_13691_86902)"/>
<path d="M49.1359 48H17.8652C17.3877 48 17.0001 48.0383 17.0001 48.0855L17 48.9145C17 48.9618 17.3876 49 17.8651 49H49.1349C49.6134 49 50 48.9617 50 48.9145L49.9999 48.0855C49.9999 48.0382 49.6123 48 49.1348 48H49.1359Z" fill="url(#paint5_linear_13691_86902)"/>
<path d="M44.3978 49H22.603C22.2702 49 22.0001 49.0383 22.0001 49.0855L22 49.9145C22 49.9618 22.2702 50 22.6029 50H44.3971C44.7306 50 45 49.9617 45 49.9145L44.9999 49.0855C44.9999 49.0382 44.7298 49 44.397 49H44.3978Z" fill="url(#paint6_linear_13691_86902)"/>
<path d="M42.3978 50H20.603C20.2702 50 20.0001 50.0383 20.0001 50.0855L20 50.9145C20 50.9618 20.2702 51 20.6029 51H42.3971C42.7306 51 43 50.9617 43 50.9145L42.9999 50.0855C42.9999 50.0382 42.7298 50 42.397 50H42.3978Z" fill="url(#paint7_linear_13691_86902)"/>
<path d="M41.6072 51H27.3933C27.1762 51 27 51.0383 27 51.0855L27 51.9145C27 51.9618 27.1762 52 27.3932 52H41.6068C41.8243 52 42 51.9617 42 51.9145L42 51.0855C42 51.0382 41.8238 51 41.6067 51H41.6072Z" fill="url(#paint8_linear_13691_86902)"/>
<path d="M39.6072 52H25.3933C25.1762 52 25 52.0383 25 52.0855L25 52.9145C25 52.9618 25.1762 53 25.3932 53H39.6068C39.8243 53 40 52.9617 40 52.9145L40 52.0855C40 52.0382 39.8238 52 39.6067 52H39.6072Z" fill="url(#paint9_linear_13691_86902)"/>
<path d="M36.7643 53H28.236C28.1057 53 28 53.0383 28 53.0855L28 53.9145C28 53.9618 28.1057 54 28.2359 54H36.7641C36.8946 54 37 53.9617 37 53.9145L37 53.0855C37 53.0382 36.8943 53 36.764 53H36.7643Z" fill="url(#paint10_linear_13691_86902)"/>
<path d="M37.7643 54H29.236C29.1057 54 29 54.0383 29 54.0855L29 54.9145C29 54.9618 29.1057 55 29.2359 55H37.7641C37.8946 55 38 54.9617 38 54.9145L38 54.0855C38 54.0382 37.8943 54 37.764 54H37.7643Z" fill="url(#paint11_linear_13691_86902)"/>
<path d="M35.8691 55H31.1311C31.0587 55 31 55.0383 31 55.0855L31 55.9145C31 55.9618 31.0587 56 31.1311 56H35.8689C35.9414 56 36 55.9617 36 55.9145L36 55.0855C36 55.0382 35.9413 55 35.8689 55H35.8691Z" fill="url(#paint12_linear_13691_86902)"/>
<path d="M33.9214 56H31.0787C31.0352 56 31 56.0383 31 56.0855L31 56.9145C31 56.9618 31.0352 57 31.0786 57H33.9214C33.9649 57 34 56.9617 34 56.9145L34 56.0855C34 56.0382 33.9648 56 33.9213 56H33.9214Z" fill="url(#paint13_linear_13691_86902)"/>
<defs>
<radialGradient id="paint0_radial_13691_86902" cx="0" cy="0" r="1" gradientUnits="userSpaceOnUse" gradientTransform="translate(33.5 44) rotate(90) scale(18.5 30.7512)">
<stop stop-color="#E4E06E"/>
<stop offset="1" stop-color="#FBF3CC" stop-opacity="0"/>
</radialGradient>
<linearGradient id="paint1_linear_13691_86902" x1="67.0043" y1="44.4824" x2="3.76079e-07" y2="44.4825" gradientUnits="userSpaceOnUse">
<stop stop-color="#2536B8" stop-opacity="0"/>
<stop offset="0.307292" stop-color="#2536B8"/>
<stop offset="0.734375" stop-color="#2536B8"/>
<stop offset="1" stop-color="#2536B8" stop-opacity="0"/>
</linearGradient>
<linearGradient id="paint2_linear_13691_86902" x1="54.0024" y1="45.4824" x2="17" y2="45.4824" gradientUnits="userSpaceOnUse">
<stop stop-color="#2536B8" stop-opacity="0"/>
<stop offset="0.307292" stop-color="#2536B8"/>
<stop offset="0.734375" stop-color="#2536B8"/>
<stop offset="1" stop-color="#2536B8" stop-opacity="0"/>
</linearGradient>
<linearGradient id="paint3_linear_13691_86902" x1="51.0025" y1="46.4824" x2="12" y2="46.4824" gradientUnits="userSpaceOnUse">
<stop stop-color="#2536B8" stop-opacity="0"/>
<stop offset="0.307292" stop-color="#2536B8"/>
<stop offset="0.734375" stop-color="#2536B8"/>
<stop offset="1" stop-color="#2536B8" stop-opacity="0"/>
</linearGradient>
<linearGradient id="paint4_linear_13691_86902" x1="52.0021" y1="47.4824" x2="19" y2="47.4824" gradientUnits="userSpaceOnUse">
<stop stop-color="#2536B8" stop-opacity="0"/>
<stop offset="0.307292" stop-color="#2536B8"/>
<stop offset="0.734375" stop-color="#2536B8"/>
<stop offset="1" stop-color="#2536B8" stop-opacity="0"/>
</linearGradient>
<linearGradient id="paint5_linear_13691_86902" x1="50.0021" y1="48.4824" x2="17" y2="48.4824" gradientUnits="userSpaceOnUse">
<stop stop-color="#2536B8" stop-opacity="0"/>
<stop offset="0.307292" stop-color="#2536B8"/>
<stop offset="0.734375" stop-color="#2536B8"/>
<stop offset="1" stop-color="#2536B8" stop-opacity="0"/>
</linearGradient>
<linearGradient id="paint6_linear_13691_86902" x1="45.0015" y1="49.4824" x2="22" y2="49.4824" gradientUnits="userSpaceOnUse">
<stop stop-color="#2536B8" stop-opacity="0"/>
<stop offset="0.307292" stop-color="#2536B8"/>
<stop offset="0.734375" stop-color="#2536B8"/>
<stop offset="1" stop-color="#2536B8" stop-opacity="0"/>
</linearGradient>
<linearGradient id="paint7_linear_13691_86902" x1="43.0015" y1="50.4824" x2="20" y2="50.4824" gradientUnits="userSpaceOnUse">
<stop stop-color="#2536B8" stop-opacity="0"/>
<stop offset="0.307292" stop-color="#2536B8"/>
<stop offset="0.734375" stop-color="#2536B8"/>
<stop offset="1" stop-color="#2536B8" stop-opacity="0"/>
</linearGradient>
<linearGradient id="paint8_linear_13691_86902" x1="42.001" y1="51.4824" x2="27" y2="51.4824" gradientUnits="userSpaceOnUse">
<stop stop-color="#2536B8" stop-opacity="0"/>
<stop offset="0.307292" stop-color="#2536B8"/>
<stop offset="0.734375" stop-color="#2536B8"/>
<stop offset="1" stop-color="#2536B8" stop-opacity="0"/>
</linearGradient>
<linearGradient id="paint9_linear_13691_86902" x1="40.001" y1="52.4824" x2="25" y2="52.4824" gradientUnits="userSpaceOnUse">
<stop stop-color="#2536B8" stop-opacity="0"/>
<stop offset="0.307292" stop-color="#2536B8"/>
<stop offset="0.734375" stop-color="#2536B8"/>
<stop offset="1" stop-color="#2536B8" stop-opacity="0"/>
</linearGradient>
<linearGradient id="paint10_linear_13691_86902" x1="37.0006" y1="53.4824" x2="28" y2="53.4824" gradientUnits="userSpaceOnUse">
<stop stop-color="#2536B8" stop-opacity="0"/>
<stop offset="0.307292" stop-color="#2536B8"/>
<stop offset="0.734375" stop-color="#2536B8"/>
<stop offset="1" stop-color="#2536B8" stop-opacity="0"/>
</linearGradient>
<linearGradient id="paint11_linear_13691_86902" x1="38.0006" y1="54.4824" x2="29" y2="54.4824" gradientUnits="userSpaceOnUse">
<stop stop-color="#2536B8" stop-opacity="0"/>
<stop offset="0.307292" stop-color="#2536B8"/>
<stop offset="0.734375" stop-color="#2536B8"/>
<stop offset="1" stop-color="#2536B8" stop-opacity="0"/>
</linearGradient>
<linearGradient id="paint12_linear_13691_86902" x1="36.0003" y1="55.4824" x2="31" y2="55.4824" gradientUnits="userSpaceOnUse">
<stop stop-color="#2536B8" stop-opacity="0"/>
<stop offset="0.307292" stop-color="#2536B8"/>
<stop offset="0.734375" stop-color="#2536B8"/>
<stop offset="1" stop-color="#2536B8" stop-opacity="0"/>
</linearGradient>
<linearGradient id="paint13_linear_13691_86902" x1="34.0002" y1="56.4824" x2="31" y2="56.4824" gradientUnits="userSpaceOnUse">
<stop stop-color="#2536B8" stop-opacity="0"/>
<stop offset="0.307292" stop-color="#2536B8"/>
<stop offset="0.734375" stop-color="#2536B8"/>
<stop offset="1" stop-color="#2536B8" stop-opacity="0"/>
</linearGradient>
<clipPath id="clip0_13691_86902">
<rect width="22" height="35" fill="white" transform="matrix(-1 0 0 1 44 14)"/>
</clipPath>
</defs>
</svg>
